{
  "asset": {
    "version": "2.0",
    "generator": "3dpea GLTFExporter"
  },
  "scenes": [
    {
      "name": "AuxScene",
      "nodes": [
        7
      ]
    }
  ],
  "scene": 0,
  "nodes": [
    {
      "name": "LOW_Material_0",
      "extras": {
        "name": "LOW_Material_0"
      },
      "mesh": 0
    },
    {
      "matrix": [
        100,
        -4.7555066710649224e-15,
        -5.152180885660542e-16,
        0,
        5.152188242058718e-16,
        21.416900084816728,
        -97.679662114265,
        0,
        4.755506591364643e-15,
        97.679662114265,
        21.416900084816728,
        0,
        17.043275833129883,
        0,
        0,
        1
      ],
      "name": "LOW",
      "extras": {
        "name": "LOW"
      },
      "children": [
        0
      ]
    },
    {
      "name": "Object_6",
      "extras": {
        "name": "Object_6"
      }
    },
    {
      "matrix": [
        -81.63829767147055,
        -29.59761360063272,
        -49.589999965448236,
        0,
        -25.29643577248657,
        95.51952545558642,
        -15.365840948974979,
        0,
        51.916058831867986,
        0.00009151719379650411,
        -85.46766236114568,
        0,
        1437.1038818359375,
        1021.5952758789062,
        917.6209716796875,
        1
      ],
      "name": "Camera",
      "extras": {
        "name": "Camera"
      },
      "children": [
        2
      ]
    },
    {
      "name": "RootNode",
      "extras": {
        "name": "RootNode"
      },
      "children": [
        1,
        3
      ]
    },
    {
      "matrix": [
        1,
        0,
        0,
        0,
        0,
        2.220446049250313e-16,
        1,
        0,
        0,
        -1,
        2.220446049250313e-16,
        0,
        0,
        0,
        0,
        1
      ],
      "name": "2225b83707594f8683ea963b5911d1f4fbx",
      "extras": {
        "name": "2225b83707594f8683ea963b5911d1f4.fbx"
      },
      "children": [
        4
      ]
    },
    {
      "matrix": [
        1,
        0,
        0,
        0,
        0,
        2.220446049250313e-16,
        -1,
        0,
        0,
        1,
        2.220446049250313e-16,
        0,
        0,
        0,
        0,
        1
      ],
      "name": "Sketchfab_model",
      "extras": {
        "name": "Sketchfab_model"
      },
      "children": [
        5
      ]
    },
    {
      "name": "pokemon_cap",
      "children": [
        6
      ]
    }
  ],
  "bufferViews": [
    {
      "buffer": 0,
      "byteOffset": 0,
      "byteLength": 8868,
      "target": 34962,
      "byteStride": 12
    },
    {
      "buffer": 0,
      "byteOffset": 8868,
      "byteLength": 8868,
      "target": 34962,
      "byteStride": 12
    },
    {
      "buffer": 0,
      "byteOffset": 17736,
      "byteLength": 11824,
      "target": 34962,
      "byteStride": 16
    },
    {
      "buffer": 0,
      "byteOffset": 29560,
      "byteLength": 5912,
      "target": 34962,
      "byteStride": 8
    },
    {
      "buffer": 0,
      "byteOffset": 35472,
      "byteLength": 5912,
      "target": 34962,
      "byteStride": 8
    },
    {
      "buffer": 0,
      "byteOffset": 41384,
      "byteLength": 5912,
      "target": 34962,
      "byteStride": 8
    },
    {
      "buffer": 0,
      "byteOffset": 47296,
      "byteLength": 6480,
      "target": 34963
    }
  ],
  "buffers": [
    {
      "byteLength": 53776,
      "uri": "data:application/octet-stream;base64,"
    }
  ],
  "accessors": [
    {
      "bufferView": 0,
      "componentType": 5126,
      "count": 739,
      "max": [
        0.9999722242355347,
        0.9999985694885254,
        1
      ],
      "min": [
        -0.9999722242355347,
        -0.9999985694885254,
        -1
      ],
      "type": "VEC3"
    },
    {
      "bufferView": 1,
      "componentType": 5126,
      "count": 739,
      "max": [
        6.926194667816162,
        15.715643882751465,
        13.02287483215332
      ],
      "min": [
        -7.2589640617370605,
        -8.943140029907227,
        -2.088118076324463
      ],
      "type": "VEC3"
    },
    {
      "bufferView": 2,
      "componentType": 5126,
      "count": 739,
      "max": [
        1,
        0.9630450010299683,
        0.963637113571167,
        1
      ],
      "min": [
        -1,
        -0.9837480187416077,
        -0.9966130256652832,
        1
      ],
      "type": "VEC4"
    },
    {
      "bufferView": 3,
      "componentType": 5126,
      "count": 739,
      "max": [
        0.9860596060752869,
        0.9744183421134949
      ],
      "min": [
        0.007718697655946016,
        0.027288377285003662
      ],
      "type": "VEC2"
    },
    {
      "bufferView": 4,
      "componentType": 5126,
      "count": 739,
      "max": [
        0.9860596060752869,
        0.9744183421134949
      ],
      "min": [
        0.007718697655946016,
        0.027288377285003662
      ],
      "type": "VEC2"
    },
    {
      "bufferView": 5,
      "componentType": 5126,
      "count": 739,
      "max": [
        0.9860596060752869,
        0.9744183421134949
      ],
      "min": [
        0.007718697655946016,
        0.027288377285003662
      ],
      "type": "VEC2"
    },
    {
      "bufferView": 6,
      "componentType": 5123,
      "count": 3240,
      "max": [
        738
      ],
      "min": [
        0
      ],
      "type": "SCALAR"
    }
  ],
  "materials": [
    {
      "pbrMetallicRoughness": {
        "metallicFactor": 0,
        "roughnessFactor": 1,
        "metallicRoughnessTexture": {
          "index": 0
        },
        "baseColorTexture": {
          "index": 1
        }
      },
      "normalTexture": {
        "index": 2
      },
      "doubleSided": true,
      "name": "Material"
    }
  ],
  "textures": [
    {
      "sampler": 0,
      "source": 0
    },
    {
      "sampler": 1,
      "source": 1
    },
    {
      "sampler": 2,
      "source": 2
    }
  ],
  "samplers": [
    {
      "magFilter": 9729,
      "minFilter": 9987,
      "wrapS": 10497,
      "wrapT": 10497
    },
    {
      "magFilter": 9729,
      "minFilter": 9987,
      "wrapS": 10497,
      "wrapT": 10497
    },
    {
      "magFilter": 9729,
      "minFilter": 9987,
      "wrapS": 10497,
      "wrapT": 10497
    }
  ],
  "images": [
    {
      "mimeType": "image/png",
      "uri": "data:image/png;base64,"
    },
    {
      "mimeType": "image/png",
      "uri": "data:image/png;base64,"
    },
    {
      "mimeType": "image/png",
      "uri": "data:image/png;base64,"
    }
  ],
  "meshes": [
    {
      "primitives": [
        {
          "mode": 4,
          "attributes": {
            "NORMAL": 0,
            "POSITION": 1,
            "TANGENT": 2,
            "TEXCOORD_0": 3,
            "TEXCOORD_1": 4,
            "TEXCOORD_2": 5
          },
          "indices": 6,
          "material": 0
        }
      ]
    }
  ]
}